<?xml version="1.0" encoding="iso-8859-1"?>
<!-- Generator: Adobe Illustrator 19.0.0, SVG Export Plug-In . SVG Version: 6.00 Build 0)  -->
<svg version="1.1" id="Capa_1" xmlns="http://www.w3.org/2000/svg" xmlns:xlink="http://www.w3.org/1999/xlink" x="0px" y="0px"
	 viewBox="0 0 485.544 485.544" style="enable-background:new 0 0 485.544 485.544; style: #ffffff; fill: #ffffff;" xml:space="preserve">
<g>
	<g>
		<path d="M409.454,337.568c-5.904-4.976-13.704-7.072-21.304-5.752l-158.656,27.592l-45.064-45.064
			c-1.496-1.504-3.528-2.344-5.656-2.344h-80c0-4.424-3.576-8-8-8h-32h-48c-4.424,0-8,3.576-8,8v128c0,4.424,3.576,8,8,8h48h32
			c4.424,0,8-3.576,8-8h22.112l85.528,42.768c3.696,1.848,7.704,2.776,11.696,2.776c4.552,0,9.096-1.192,13.168-3.568
			L405.806,380.16c8-4.664,12.968-13.312,12.968-22.576C418.774,349.848,415.374,342.552,409.454,337.568z M50.774,432h-32V320h32
			V432z M82.774,432h-16V320h16V432z M397.742,366.336l-174.52,101.816c-2.96,1.728-6.568,1.84-9.648,0.304l-87.216-43.608
			c-1.112-0.56-2.344-0.848-3.584-0.848h-24v-96h76.688l63.032,63.032c2.72,2.72,4.28,6.488,4.28,10.344
			c0,8.064-6.56,14.624-14.624,14.624c-3.848,0-7.624-1.56-10.344-4.28l-41.376-41.376l-11.312,11.312l41.376,41.376
			c5.784,5.784,13.472,8.968,21.656,8.968c16.88,0,30.624-13.744,30.624-30.624c0-8.176-3.184-15.872-8.968-21.656l-6.48-6.48
			l147.552-25.664c2.968-0.52,5.976,0.296,8.272,2.232c2.304,1.936,3.624,4.768,3.624,7.768
			C402.774,361.168,400.846,364.528,397.742,366.336z"/>
	</g>
</g>
<g>
	<g>
		<path d="M482.502,125.936l-32-120c-0.64-2.432-2.392-4.408-4.728-5.352c-2.312-0.936-4.968-0.744-7.12,0.552l-120,72
			c-2.872,1.728-4.368,5.056-3.744,8.352c0.624,3.296,3.232,5.848,6.544,6.4l43.552,7.256l14.336,35.824
			c0.928,2.312,2.872,4.064,5.272,4.736c2.4,0.664,4.968,0.192,6.952-1.304l28.304-21.224l51.752,22.176
			c1.008,0.44,2.088,0.648,3.152,0.648c1.888,0,3.752-0.672,5.232-1.952C482.318,132.048,483.286,128.896,482.502,125.936z
			 M367.758,79.384l-22.24-3.712l55.6-33.352L367.758,79.384z M411.694,99.304l-21.368,16.032l-10.28-25.688l47.168-52.416
			L411.694,99.304z M428.182,99.328l14.84-59.352l19.784,74.184L428.182,99.328z"/>
	</g>
</g>
<g>
	<g>
		<path d="M348.878,252.136c-0.32,4.792-1.2,9.376-2.624,13.656l15.184,5.032c1.84-5.544,2.984-11.464,3.408-17.592L348.878,252.136
			z"/>
	</g>
</g>
<g>
	<g>
		<path d="M297.838,213.424c-4.856,0.888-9.976,2.024-16.136,3.568l3.888,15.512c5.032-1.256,10.08-2.424,15.12-3.344
			L297.838,213.424z"/>
	</g>
</g>
<g>
	<g>
		<path d="M200.054,169.368c-4.176,3.808-8.168,7.784-11.856,11.832l11.832,10.784c3.352-3.68,6.984-7.304,10.8-10.768
			L200.054,169.368z"/>
	</g>
</g>
<g>
	<g>
		<path d="M292.118,311.128c-4.832,1.912-9.76,3.688-14.68,5.368l5.152,15.136c5.168-1.76,10.344-3.624,15.416-5.632
			L292.118,311.128z"/>
	</g>
</g>
<g>
	<g>
		<path d="M315.486,108.68c-5.152,1.68-10.264,3.44-15.36,5.264l5.424,15.064c4.936-1.784,9.912-3.496,14.904-5.128L315.486,108.68z
			"/>
	</g>
</g>
<g>
	<g>
		<polygon points="262.382,321.376 247.07,326.192 251.942,341.432 267.182,336.64 		"/>
	</g>
</g>
<g>
	<g>
		<path d="M255.038,132.848c-4.912,2.44-9.768,4.992-14.52,7.68l7.872,13.936c4.504-2.544,9.096-4.976,13.76-7.288L255.038,132.848z
			"/>
	</g>
</g>
<g>
	<g>
		<path d="M340.182,278.104c-2.504,3.72-5.616,7.288-9.24,10.632l10.84,11.768c4.536-4.184,8.464-8.704,11.664-13.448
			L340.182,278.104z"/>
	</g>
</g>
<g>
	<g>
		<path d="M266.118,221.064c-5.08,1.336-10.16,2.64-15.224,3.768l3.472,15.624c5.272-1.168,10.552-2.52,15.832-3.92L266.118,221.064
			z"/>
	</g>
</g>
<g>
	<g>
		<path d="M284.934,119.672c-5.056,1.992-10.08,4.08-15.056,6.272l6.44,14.64c4.792-2.104,9.624-4.112,14.488-6.024L284.934,119.672
			z"/>
	</g>
</g>
<g>
	<g>
		<path d="M189.326,206.936c0.288-1.152,0.832-2.368,1.656-3.736l-13.704-8.264c-1.648,2.736-2.776,5.384-3.456,8.056
			c-0.512,2.032-0.784,4.128-0.784,6.24c0,2.4,0.336,4.84,0.992,7.264l15.44-4.2c-0.28-1.048-0.432-2.08-0.432-3.064
			C189.038,208.448,189.134,207.688,189.326,206.936z"/>
	</g>
</g>
<g>
	<g>
		<path d="M195.558,220.984l-9.752,12.688c4.672,3.592,10.496,6.312,17.304,8.072l4-15.488
			C202.406,225.04,198.518,223.264,195.558,220.984z"/>
	</g>
</g>
<g>
	<g>
		<path d="M226.39,149.128c-4.752,3.104-9.304,6.336-13.544,9.592l9.736,12.688c3.928-3.008,8.16-6,12.576-8.888L226.39,149.128z"/>
	</g>
</g>
<g>
	<g>
		<path d="M350.27,217.88l-8.128,13.784c2.384,1.4,5.4,3.768,6.264,7.096l15.488-4C362.126,227.928,357.414,222.088,350.27,217.88z"
			/>
	</g>
</g>
<g>
	<g>
		<path d="M346.59,99.456c-5.224,1.392-10.424,2.856-15.624,4.392l4.544,15.344c5.04-1.496,10.104-2.92,15.176-4.264L346.59,99.456z
			"/>
	</g>
</g>
<g>
	<g>
		<path d="M235.902,227.488c-5.248,0.648-9.904,0.872-14.68,0.728l-0.592,15.976c1.136,0.048,2.272,0.064,3.408,0.064
			c4.44,0,8.96-0.296,13.832-0.896L235.902,227.488z"/>
	</g>
</g>
<g>
	<g>
		<path d="M319.342,297.608c-3.912,2.528-8.336,4.992-13.144,7.344l7.032,14.376c5.368-2.624,10.344-5.408,14.784-8.264
			L319.342,297.608z"/>
	</g>
</g>
<g>
	<g>
		<path d="M330.414,211.624c-5.256-0.552-10.496-0.576-15.736-0.28l0.904,15.968c4.384-0.248,8.776-0.232,13.136,0.216l1.296,0.152
			l2.184-15.84L330.414,211.624z"/>
	</g>
</g>
<g>
</g>
<g>
</g>
<g>
</g>
<g>
</g>
<g>
</g>
<g>
</g>
<g>
</g>
<g>
</g>
<g>
</g>
<g>
</g>
<g>
</g>
<g>
</g>
<g>
</g>
<g>
</g>
<g>
</g>
</svg>
