<?xml version="1.0" encoding="iso-8859-1"?>
<!-- Generator: Adobe Illustrator 19.0.0, SVG Export Plug-In . SVG Version: 6.00 Build 0)  -->
<svg version="1.1" id="Capa_1" xmlns="http://www.w3.org/2000/svg" xmlns:xlink="http://www.w3.org/1999/xlink" x="0px" y="0px"
	 viewBox="0 0 480 480" style="enable-background:new 0 0 480 480; fill: white; stroke: white;" xml:space="preserve">
<g>
	<g>
		<path d="M472,240h-64v-32c0-3.384-2.128-6.4-5.312-7.536L296,162.36V144h56c22.056,0,40-17.944,40-40
			c0-19.32-13.768-35.488-32.008-39.2C360,64.536,360,64.264,360,64c0-22.056-17.944-40-40-40c-3.648,0-7.296,0.528-10.84,1.56
			C303.36,10.456,288.832,0,272,0c-13.128,0-24.704,6.448-32,16.248C232.704,6.448,221.128,0,208,0
			c-16.832,0-31.36,10.456-37.16,25.56C167.296,24.528,163.656,24,160,24c-22.056,0-40,17.944-40,40c0,0.264,0,0.536,0.008,0.8
			C101.768,68.512,88,84.68,88,104c0,22.056,17.944,40,40,40h56v18.36L77.312,200.464C74.128,201.6,72,204.616,72,208v32H40
			c-22.056,0-40,17.944-40,40v160c0,22.056,17.944,40,40,40h96c4.416,0,8-3.584,8-8V312v-64c0-4.416-3.584-8-8-8H88v-26.36
			l106.688-38.104C197.872,174.4,200,171.384,200,168v-24h8c9.04,0,17.296-3.128,24-8.208V240h-24c-22.056,0-40,17.944-40,40v160
			c0,22.056,17.944,40,40,40h96c4.416,0,8-3.584,8-8V312v-64c0-4.416-3.584-8-8-8h-56V135.792c6.704,5.08,14.96,8.208,24,8.208h8v24
			c0,3.384,2.128,6.4,5.312,7.536L392,213.64V240h-16c-22.056,0-40,17.944-40,40v160c0,22.056,17.944,40,40,40h96
			c4.416,0,8-3.584,8-8V312v-64C480,243.584,476.416,240,472,240z M128,464H40c-13.232,0-24-10.768-24-24V311.984
			c0.304,0.232,0.664,0.4,0.976,0.624c0.664,0.472,1.368,0.88,2.064,1.312c1.344,0.832,2.72,1.592,4.16,2.264
			c0.784,0.368,1.568,0.712,2.384,1.032c1.536,0.6,3.12,1.072,4.744,1.472c0.76,0.192,1.488,0.424,2.264,0.568
			C34.992,319.704,37.456,320,40,320h88V464z M128,256v48H40c-13.232,0-24-10.768-24-24s10.768-24,24-24h32v24h16v-24H128z
			 M215.256,126.76c-2.376-16.288-10.84-30.6-23.08-40.504c0.888-8,7.6-14.256,15.824-14.256V56c-13.96,0-25.728,9.04-30.096,21.528
			C169.976,74,161.224,72,152,72v16c23.736,0,43.448,17.336,47.28,40h-45.056c2.776-4.76,7.88-8,13.776-8v-16
			c-14.864,0-27.288,10.24-30.864,24H128c-13.232,0-24-10.768-24-24s10.768-24,23.504-24.016c0.272,0.04,1.072,0.12,1.344,0.128
			c2.472,0.072,4.968-1.008,6.552-2.984c1.592-1.984,2.144-4.592,1.496-7.048C136.288,67.744,136,65.808,136,64
			c0-13.232,10.768-24,24-24c4.248,0,8.36,1.176,12.232,3.488c2.344,1.408,5.248,1.512,7.68,0.296c2.44-1.216,4.096-3.6,4.384-6.312
			C185.6,25.232,195.792,16,208,16c13.232,0,24,10.768,24,24v64C232,114.688,224.928,123.664,215.256,126.76z M296,464h-88
			c-13.232,0-24-10.768-24-24V311.984c0.304,0.232,0.664,0.4,0.976,0.624c0.664,0.472,1.368,0.88,2.064,1.312
			c1.344,0.832,2.72,1.592,4.16,2.264c0.784,0.368,1.568,0.712,2.384,1.032c1.536,0.6,3.12,1.072,4.744,1.472
			c0.76,0.192,1.488,0.424,2.264,0.568c2.4,0.448,4.864,0.744,7.408,0.744h88V464z M296,256v48h-88c-13.232,0-24-10.768-24-24
			s10.768-24,24-24h24v24h16v-24H296z M280.72,128c3.824-22.664,23.536-40,47.28-40V72c-9.224,0-17.976,2-25.904,5.528
			C297.728,65.04,285.96,56,272,56v16c8.224,0,14.936,6.256,15.824,14.248c-12.24,9.904-20.704,24.224-23.08,40.504
			C255.072,123.664,248,114.688,248,104V40c0-13.232,10.768-24,24-24c12.208,0,22.4,9.232,23.704,21.472
			c0.296,2.704,1.944,5.088,4.384,6.304s5.336,1.112,7.68-0.288C311.64,41.168,315.752,40,320,40c13.232,0,24,10.768,24,24
			c0,1.808-0.288,3.744-0.904,6.072c-0.648,2.456-0.096,5.072,1.496,7.048c1.584,1.976,3.992,3.056,6.552,2.984
			c0.464-0.008,0.904-0.064,0.856-0.104c13.232,0,24,10.768,24,24s-10.768,24-24,24h-9.136c-3.576-13.76-16-24-30.864-24v16
			c5.896,0,11,3.24,13.776,8H280.72z M464,464h-88c-13.232,0-24-10.768-24-24V311.984c0.304,0.232,0.664,0.4,0.976,0.624
			c0.664,0.472,1.368,0.88,2.064,1.312c1.344,0.832,2.72,1.592,4.16,2.264c0.784,0.368,1.568,0.712,2.384,1.032
			c1.536,0.6,3.12,1.072,4.744,1.472c0.76,0.192,1.488,0.424,2.264,0.568c2.4,0.448,4.864,0.744,7.408,0.744h88V464z M464,304h-88
			c-13.232,0-24-10.768-24-24s10.768-24,24-24h16v24h16v-24h56V304z"/>
	</g>
</g>
<g>
	<g>
		<path d="M104,336H48c-4.416,0-8,3.584-8,8v32c0,4.416,3.584,8,8,8h56c4.416,0,8-3.584,8-8v-32C112,339.584,108.416,336,104,336z
			 M96,368H56v-16h40V368z"/>
	</g>
</g>
<g>
	<g>
		<rect x="40" y="400" width="72" height="16"/>
	</g>
</g>
<g>
	<g>
		<rect x="56" y="432" width="40" height="16"/>
	</g>
</g>
<g>
	<g>
		<path d="M272,336h-56c-4.416,0-8,3.584-8,8v32c0,4.416,3.584,8,8,8h56c4.416,0,8-3.584,8-8v-32C280,339.584,276.416,336,272,336z
			 M264,368h-40v-16h40V368z"/>
	</g>
</g>
<g>
	<g>
		<rect x="208" y="400" width="72" height="16"/>
	</g>
</g>
<g>
	<g>
		<rect x="224" y="432" width="40" height="16"/>
	</g>
</g>
<g>
	<g>
		<path d="M440,336h-56c-4.416,0-8,3.584-8,8v32c0,4.416,3.584,8,8,8h56c4.416,0,8-3.584,8-8v-32C448,339.584,444.416,336,440,336z
			 M432,368h-40v-16h40V368z"/>
	</g>
</g>
<g>
	<g>
		<rect x="376" y="400" width="72" height="16"/>
	</g>
</g>
<g>
	<g>
		<rect x="392" y="432" width="40" height="16"/>
	</g>
</g>
<g>
	<g>
		<rect x="416" y="96" width="16" height="16"/>
	</g>
</g>
<g>
	<g>
		<rect x="448" y="96" width="16" height="16"/>
	</g>
</g>
<g>
	<g>
		<rect x="448" y="128" width="16" height="16"/>
	</g>
</g>
<g>
	<g>
		<rect x="448" y="64" width="16" height="16"/>
	</g>
</g>
<g>
	<g>
		<rect x="48" y="96" width="16" height="16"/>
	</g>
</g>
<g>
	<g>
		<rect x="16" y="96" width="16" height="16"/>
	</g>
</g>
<g>
	<g>
		<rect x="16" y="128" width="16" height="16"/>
	</g>
</g>
<g>
	<g>
		<rect x="16" y="64" width="16" height="16"/>
	</g>
</g>
<g>
</g>
<g>
</g>
<g>
</g>
<g>
</g>
<g>
</g>
<g>
</g>
<g>
</g>
<g>
</g>
<g>
</g>
<g>
</g>
<g>
</g>
<g>
</g>
<g>
</g>
<g>
</g>
<g>
</g>
</svg>
