<?xml version="1.0" encoding="iso-8859-1"?>
<!-- Generator: Adobe Illustrator 19.0.0, SVG Export Plug-In . SVG Version: 6.00 Build 0)  -->
<svg version="1.1" id="Capa_1" xmlns="http://www.w3.org/2000/svg" xmlns:xlink="http://www.w3.org/1999/xlink" x="0px" y="0px"
	 viewBox="0 0 480 480" style="enable-background:new 0 0 480 480; fill: white; stroke: white;" xml:space="preserve">
<g>
	<g>
		<rect x="424" y="432" width="16" height="16"/>
	</g>
</g>
<g>
	<g>
		<rect x="392" y="432" width="16" height="16"/>
	</g>
</g>
<g>
	<g>
		<rect x="392" y="400" width="16" height="16"/>
	</g>
</g>
<g>
	<g>
		<rect x="40" y="432" width="16" height="16"/>
	</g>
</g>
<g>
	<g>
		<rect x="72" y="432" width="16" height="16"/>
	</g>
</g>
<g>
	<g>
		<rect x="72" y="400" width="16" height="16"/>
	</g>
</g>
<g>
	<g>
		<path d="M417.136,144c3.576,13.76,16,24,30.864,24c17.648,0,32-14.352,32-32s-14.352-32-32-32c-14.864,0-27.288,10.24-30.864,24
			H304v-24h80c2.12,0,4.16-0.84,5.656-2.344l42.192-42.192C436.608,62.28,442.08,64,448,64c17.648,0,32-14.352,32-32
			S465.648,0,448,0s-32,14.352-32,32c0,5.92,1.72,11.392,4.536,16.152L380.688,88H304V64c17.648,0,32-14.352,32-32S321.648,0,304,0
			H176c-17.648,0-32,14.352-32,32s14.352,32,32,32v24H99.312L59.464,48.152C62.28,43.392,64,37.92,64,32C64,14.352,49.648,0,32,0
			S0,14.352,0,32s14.352,32,32,32c5.92,0,11.392-1.72,16.152-4.536l42.192,42.192C91.84,103.16,93.88,104,96,104h80v24H62.864
			c-3.576-13.76-16-24-30.864-24c-17.648,0-32,14.352-32,32s14.352,32,32,32c14.864,0,27.288-10.24,30.864-24H176v24H96
			c-2.12,0-4.16,0.84-5.656,2.344l-42.192,42.192C43.392,209.72,37.92,208,32,208c-17.648,0-32,14.352-32,32s14.352,32,32,32
			s32-14.352,32-32c0-5.92-1.72-11.392-4.536-16.152L99.312,184H176v28.992l-163.976,187.4c-12.56,14.36-15.472,34.072-7.584,51.448
			C12.328,469.208,29.072,480,48.152,480h383.696c19.08,0,35.832-10.792,43.712-28.168c7.88-17.376,4.976-37.088-7.584-51.448
			L304,212.992V184h76.688l39.848,39.848C417.72,228.608,416,234.08,416,240c0,17.648,14.352,32,32,32s32-14.352,32-32
			s-14.352-32-32-32c-5.92,0-11.392,1.72-16.152,4.536l-42.192-42.192C388.16,168.84,386.12,168,384,168h-80v-24H417.136z M448,120
			c8.824,0,16,7.176,16,16c0,8.824-7.176,16-16,16c-8.824,0-16-7.176-16-16C432,127.176,439.176,120,448,120z M448,16
			c8.824,0,16,7.176,16,16s-7.176,16-16,16c-8.824,0-16-7.176-16-16S439.176,16,448,16z M32,48c-8.824,0-16-7.176-16-16
			s7.176-16,16-16s16,7.176,16,16S40.824,48,32,48z M32,152c-8.824,0-16-7.176-16-16c0-8.824,7.176-16,16-16s16,7.176,16,16
			C48,144.824,40.824,152,32,152z M32,256c-8.824,0-16-7.176-16-16c0-8.824,7.176-16,16-16s16,7.176,16,16
			C48,248.824,40.824,256,32,256z M448,224c8.824,0,16,7.176,16,16c0,8.824-7.176,16-16,16c-8.824,0-16-7.176-16-16
			C432,231.176,439.176,224,448,224z M296,48c-4.416,0-8,3.584-8,8v160c0,1.936,0.704,3.808,1.984,5.272l165.952,189.664
			c8.376,9.568,10.312,22.712,5.056,34.296C455.736,456.808,444.568,464,431.848,464H48.152c-12.72,0-23.888-7.192-29.144-18.776
			s-3.32-24.72,5.056-34.296l165.952-189.664c1.28-1.456,1.984-3.328,1.984-5.264v-48h24v-16h-24v-24h24v-16h-24V88h24V72h-24V56
			c0-4.416-3.584-8-8-8h-8c-8.824,0-16-7.176-16-16s7.176-16,16-16h128c8.824,0,16,7.176,16,16s-7.176,16-16,16H296z"/>
	</g>
</g>
<g>
	<g>
		<path d="M309.952,360c16.536-29.736,18.928-58.2,3.592-73.536c-15.336-15.344-43.808-12.952-73.536,3.584
			c-29.744-16.536-58.208-18.928-73.544-3.584c-15.344,15.344-12.944,43.808,3.592,73.536c-16.536,29.736-18.928,58.2-3.592,73.536
			c6.96,6.96,16.616,10.272,27.872,10.272c13.552,0,29.424-4.96,45.664-13.992c16.24,9.032,32.12,13.992,45.672,13.992
			c11.248,0,20.912-3.32,27.872-10.272C328.888,418.192,326.488,389.728,309.952,360z M177.776,297.776
			c3.68-3.68,9.416-5.544,16.56-5.544c8.352,0,18.688,2.704,29.872,7.864c-8.072,5.8-16.08,12.592-23.8,20.304
			c-7.736,7.736-14.536,15.768-20.352,23.856C170.44,323.488,169.776,305.776,177.776,297.776z M177.776,422.224
			c-8-8-7.336-25.712,2.28-46.488c5.808,8.088,12.616,16.12,20.352,23.856c7.76,7.76,15.824,14.488,23.936,20.312
			C203.536,429.56,185.792,430.232,177.776,422.224z M211.712,388.288c-9.352-9.352-16.992-18.952-22.992-28.288
			c6-9.336,13.64-18.928,22.992-28.288c9.36-9.352,18.952-16.92,28.288-22.92c9.336,6,18.928,13.568,28.288,22.928
			c9.352,9.352,16.992,18.952,22.992,28.288c-6,9.336-13.64,18.928-22.992,28.288c-9.36,9.344-18.952,16.984-28.288,22.984
			C230.664,405.28,221.072,397.64,211.712,388.288z M302.224,422.224c-8.016,8-25.76,7.328-46.568-2.32
			c8.12-5.824,16.176-12.552,23.936-20.312c7.736-7.736,14.536-15.768,20.352-23.856
			C309.56,396.512,310.224,414.224,302.224,422.224z M299.944,344.264c-5.808-8.088-12.616-16.12-20.352-23.856
			c-7.712-7.712-15.728-14.504-23.8-20.312c11.184-5.168,21.52-7.864,29.872-7.864c7.144,0,12.872,1.864,16.56,5.544
			C310.224,305.776,309.56,323.488,299.944,344.264z"/>
	</g>
</g>
<g>
	<g>
		<rect x="232" y="352" width="16" height="16"/>
	</g>
</g>
<g>
</g>
<g>
</g>
<g>
</g>
<g>
</g>
<g>
</g>
<g>
</g>
<g>
</g>
<g>
</g>
<g>
</g>
<g>
</g>
<g>
</g>
<g>
</g>
<g>
</g>
<g>
</g>
<g>
</g>
</svg>
