<?xml version="1.0" encoding="iso-8859-1"?>
<!-- Generator: Adobe Illustrator 19.0.0, SVG Export Plug-In . SVG Version: 6.00 Build 0)  -->
<svg version="1.1" id="Capa_1" xmlns="http://www.w3.org/2000/svg" xmlns:xlink="http://www.w3.org/1999/xlink" x="0px" y="0px"
	 viewBox="0 0 480 480" style="enable-background:new 0 0 480 480; fill: white; stroke: white;" xml:space="preserve">
<g>
	<g>
		<path d="M240,176c-35.288,0-64,28.712-64,64c0,35.288,28.712,64,64,64c35.288,0,64-28.712,64-64C304,204.712,275.288,176,240,176z
			 M240,192c10.352,0,19.92,3.328,27.768,8.92L240,228.688l-27.768-27.768C220.08,195.328,229.648,192,240,192z M192,240
			c0-10.352,3.328-19.92,8.92-27.768L228.688,240l-27.768,27.768C195.328,259.92,192,250.352,192,240z M240,288
			c-10.352,0-19.92-3.328-27.768-8.92L240,251.312l27.768,27.768C259.92,284.672,250.352,288,240,288z M279.08,267.768L251.312,240
			l27.768-27.768C284.672,220.08,288,229.648,288,240S284.672,259.92,279.08,267.768z"/>
	</g>
</g>
<g>
	<g>
		<path d="M373.656,189.656L419.312,144H480v-16h-64c-2.128,0-4.16,0.84-5.656,2.344L364.688,176h-15.432l3.88-3.88
			c1.504-1.504,2.344-3.536,2.344-5.656s-0.84-4.16-2.344-5.656l-33.944-33.944c-3.128-3.128-8.184-3.128-11.312,0l-3.88,3.88
			v-15.432l45.656-45.656C351.16,68.16,352,66.12,352,64V0h-16v60.688l-45.656,45.656C288.84,107.84,288,109.88,288,112v27.072
			c-5.192-2.472-10.496-4.672-16-6.32v-17.44l5.656-5.656C279.16,108.16,280,106.12,280,104V75.312l29.656-29.656
			C311.16,44.16,312,42.12,312,40V0h-16v36.688l-29.656,29.656C264.84,67.84,264,69.88,264,72v28.688L260.688,104H248V0h-16v104
			h-12.688L216,100.688V72c0-2.12-0.84-4.16-2.344-5.656L184,36.688V0h-16v40c0,2.12,0.84,4.16,2.344,5.656L200,75.312V104
			c0,2.12,0.84,4.16,2.344,5.656l5.656,5.656v17.44c-5.504,1.64-10.808,3.848-16,6.32V112c0-2.12-0.84-4.16-2.344-5.656L144,60.688
			V0h-16v64c0,2.12,0.84,4.16,2.344,5.656L176,115.312v15.432l-3.88-3.88c-3.128-3.128-8.184-3.128-11.312,0l-33.944,33.944
			c-1.504,1.504-2.344,3.536-2.344,5.656s0.84,4.16,2.344,5.656l3.88,3.88h-15.432l-45.656-45.656C68.16,128.84,66.128,128,64,128H0
			v16h60.688l45.656,45.656C107.84,191.16,109.872,192,112,192h27.072c-2.472,5.192-4.672,10.496-6.32,16h-17.44l-5.656-5.656
			C108.16,200.84,106.128,200,104,200H75.312l-29.656-29.656C44.16,168.84,42.128,168,40,168H0v16h36.688l29.656,29.656
			C67.84,215.16,69.872,216,72,216h28.688l3.312,3.312V232H0v16h104v12.688L100.688,264H72c-2.128,0-4.16,0.84-5.656,2.344
			L36.688,296H0v16h40c2.128,0,4.16-0.84,5.656-2.344L75.312,280H104c2.128,0,4.16-0.84,5.656-2.344l5.656-5.656h17.44
			c1.648,5.504,3.848,10.808,6.32,16H112c-2.128,0-4.16,0.84-5.656,2.344L60.688,336H0v16h64c2.128,0,4.16-0.84,5.656-2.344
			L115.312,304h15.432l-3.88,3.88c-1.504,1.504-2.344,3.536-2.344,5.656s0.84,4.16,2.344,5.656l33.944,33.944
			c3.128,3.128,8.184,3.128,11.312,0l3.88-3.88v15.432l-45.656,45.656C128.84,411.84,128,413.88,128,416v64h16v-60.688
			l45.656-45.656C191.16,372.16,192,370.12,192,368v-27.072c5.192,2.472,10.496,4.672,16,6.32v17.44l-5.656,5.656
			C200.84,371.84,200,373.88,200,376v28.688l-29.656,29.656C168.84,435.84,168,437.88,168,440v40h16v-36.688l29.656-29.656
			C215.16,412.16,216,410.12,216,408v-28.688l3.312-3.312H232v104h16V376h12.688l3.312,3.312V408c0,2.12,0.84,4.16,2.344,5.656
			L296,443.312V480h16v-40c0-2.12-0.84-4.16-2.344-5.656L280,404.688V376c0-2.12-0.84-4.16-2.344-5.656L272,364.688v-17.44
			c5.504-1.64,10.808-3.848,16-6.32V368c0,2.12,0.84,4.16,2.344,5.656L336,419.312V480h16v-64c0-2.12-0.84-4.16-2.344-5.656
			L304,364.688v-15.432l3.88,3.88c3.128,3.128,8.184,3.128,11.312,0l33.944-33.944c1.504-1.504,2.344-3.536,2.344-5.656
			s-0.84-4.16-2.344-5.656l-3.88-3.88h15.432l45.656,45.656C411.84,351.16,413.872,352,416,352h64v-16h-60.688l-45.656-45.656
			C372.16,288.84,370.128,288,368,288h-27.072c2.472-5.192,4.672-10.496,6.32-16h17.44l5.656,5.656
			C371.84,279.16,373.872,280,376,280h28.688l29.656,29.656C435.84,311.16,437.872,312,440,312h40v-16h-36.688l-29.656-29.656
			C412.16,264.84,410.128,264,408,264h-28.688L376,260.688V248h104v-16H376v-12.688l3.312-3.312H408c2.128,0,4.16-0.84,5.656-2.344
			L443.312,184H480v-16h-40c-2.128,0-4.16,0.84-5.656,2.344L404.688,200H376c-2.128,0-4.16,0.84-5.656,2.344L364.688,208h-17.44
			c-1.648-5.504-3.848-10.808-6.32-16H368C370.128,192,372.16,191.16,373.656,189.656z M341.112,224.008H360V256h-18.888
			c-3.712,0-6.928,2.544-7.784,6.16c-2.36,9.936-6.288,19.408-11.68,28.152c-1.952,3.16-1.48,7.24,1.152,9.856l13.376,13.376
			l-22.632,22.632L300.168,322.8c-2.624-2.624-6.72-3.096-9.856-1.152c-8.744,5.4-18.208,9.328-28.152,11.68
			c-3.608,0.856-6.16,4.08-6.16,7.784V360h-32v-18.896c0-3.704-2.544-6.928-6.16-7.784c-9.936-2.352-19.408-6.28-28.152-11.68
			c-3.152-1.944-7.248-1.472-9.856,1.152l-13.376,13.376l-22.632-22.632L157.2,300.16c2.624-2.624,3.104-6.704,1.152-9.856
			c-5.392-8.744-9.32-18.216-11.68-28.152c-0.848-3.608-4.072-6.152-7.784-6.152H120v-32h18.888c3.712,0,6.928-2.544,7.784-6.16
			c2.36-9.936,6.288-19.408,11.68-28.152c1.952-3.16,1.48-7.24-1.152-9.856l-13.376-13.376l22.632-22.632l13.376,13.376
			c2.608,2.624,6.712,3.088,9.856,1.152c8.744-5.4,18.208-9.328,28.152-11.68c3.608-0.856,6.16-4.08,6.16-7.784V120h32v18.896
			c0,3.704,2.544,6.928,6.16,7.784c9.936,2.352,19.408,6.28,28.152,11.68c3.144,1.936,7.232,1.472,9.856-1.152l13.376-13.376
			l22.632,22.632L322.8,179.84c-2.624,2.624-3.104,6.704-1.152,9.856c5.392,8.744,9.32,18.216,11.68,28.152
			C334.176,221.456,337.4,224.008,341.112,224.008z"/>
	</g>
</g>
<g>
</g>
<g>
</g>
<g>
</g>
<g>
</g>
<g>
</g>
<g>
</g>
<g>
</g>
<g>
</g>
<g>
</g>
<g>
</g>
<g>
</g>
<g>
</g>
<g>
</g>
<g>
</g>
<g>
</g>
</svg>
