<?xml version="1.0" encoding="iso-8859-1"?>
<!-- Generator: Adobe Illustrator 19.0.0, SVG Export Plug-In . SVG Version: 6.00 Build 0)  -->
<svg version="1.1" id="Capa_1" xmlns="http://www.w3.org/2000/svg" xmlns:xlink="http://www.w3.org/1999/xlink" x="0px" y="0px"
	 viewBox="0 0 480 480" style="enable-background:new 0 0 480 480; fill: white; stroke: white;" xml:space="preserve">
<g>
	<g>
		<path d="M440,0H40C17.944,0,0,17.944,0,40v296c0,22.056,17.944,40,40,40h123.688L138.8,432H96c-4.416,0-8,3.584-8,8
			c0,22.056,17.944,40,40,40h224c22.056,0,40-17.944,40-40c0-4.416-3.584-8-8-8h-42.8l-24.888-56H440c22.056,0,40-17.944,40-40V40
			C480,17.944,462.056,0,440,0z M360,48V16h40v28.688l-45.656,45.656C352.84,91.84,352,93.88,352,96v25.344
			c-7.176-5.232-15.232-10.52-24-15.544V83.32l29.656-29.656C359.16,52.16,360,50.12,360,48z M304,48V16h40v28.688l-29.656,29.656
			C312.84,75.84,312,77.88,312,80v17.384c-7.6-3.592-15.64-6.76-24-9.44V67.312l13.656-13.656C303.16,52.16,304,50.12,304,48z
			 M248,16h40v28.688l-13.656,13.656C272.84,59.84,272,61.88,272,64v19.6c-7.768-1.688-15.8-2.72-24-3.176V16z M372.84,160
			c-16.52,16.256-70.36,64-132.84,64s-116.328-47.744-132.84-64c16.512-16.256,70.352-64,132.84-64S356.328,143.744,372.84,160z
			 M357.656,266.344L328,236.688v-22.48c8.768-5.024,16.824-10.312,24-15.544V224c0,2.12,0.84,4.16,2.344,5.656L400,275.312V304h-40
			v-32C360,269.88,359.16,267.84,357.656,266.344z M301.656,266.344L288,252.688v-20.632c8.36-2.68,16.4-5.848,24-9.44V240
			c0,2.12,0.84,4.16,2.344,5.656L344,275.312V304h-40v-32C304,269.88,303.16,267.84,301.656,266.344z M274.344,261.656L288,275.312
			V304h-40v-64.424c8.2-0.464,16.232-1.488,24-3.176V256C272,258.12,272.84,260.16,274.344,261.656z M136,275.312l29.656-29.656
			C167.16,244.16,168,242.12,168,240v-17.384c7.6,3.592,15.64,6.76,24,9.44v20.632l-13.656,13.656C176.84,267.84,176,269.88,176,272
			v32h-40V275.312z M122.344,266.336C120.84,267.84,120,269.88,120,272v32H80v-28.688l45.656-45.656
			C127.16,228.16,128,226.12,128,224v-25.344c7.176,5.232,15.232,10.52,24,15.544v22.48L122.344,266.336z M192,275.312
			l13.656-13.656C207.16,260.16,208,258.12,208,256v-19.6c7.768,1.688,15.8,2.72,24,3.176V304h-40V275.312z M192,16h40v64.424
			c-8.2,0.464-16.232,1.488-24,3.176V64c0-2.12-0.84-4.16-2.344-5.656L192,44.688V16z M136,16h40v32c0,2.12,0.84,4.16,2.344,5.656
			L192,67.312v20.632c-8.36,2.68-16.4,5.848-24,9.44V80c0-2.12-0.84-4.16-2.344-5.656L136,44.688V16z M80,16h40v32
			c0,2.12,0.84,4.16,2.344,5.656L152,83.312v22.48c-8.768,5.024-16.824,10.312-24,15.544V96c0-2.12-0.84-4.16-2.344-5.656L80,44.688
			V16z M16,40c0-13.232,10.768-24,24-24h24v32c0,2.12,0.84,4.16,2.344,5.656L112,99.312v34.584
			c-13.088,11.064-21.048,19.752-21.96,20.768c-2.72,3.032-2.72,7.64,0,10.672c0.912,1.016,8.872,9.712,21.96,20.768v34.584
			l-45.656,45.656C64.84,267.84,64,269.88,64,272v32H16V40z M374.632,448c-3.304,9.312-12.2,16-22.632,16H128
			c-10.432,0-19.328-6.688-22.632-16H144h192H374.632z M323.688,432H156.312l24.888-56h117.6L323.688,432z M464,336
			c0,13.232-10.768,24-24,24H304H176H40c-13.232,0-24-10.768-24-24v-16h448V336z M464,304h-48v-32c0-2.12-0.84-4.16-2.344-5.656
			L368,220.688v-34.584c13.088-11.064,21.048-19.752,21.96-20.768c2.72-3.032,2.72-7.64,0-10.672
			c-0.912-1.016-8.872-9.712-21.96-20.768V99.312l45.656-45.656C415.16,52.16,416,50.12,416,48V16h24c13.232,0,24,10.768,24,24V304z
			"/>
	</g>
</g>
<g>
	<g>
		<path d="M240,112c-26.472,0-48,21.528-48,48s21.528,48,48,48s48-21.528,48-48S266.472,112,240,112z M240,192
			c-17.648,0-32-14.352-32-32s14.352-32,32-32s32,14.352,32,32S257.648,192,240,192z"/>
	</g>
</g>
<g>
	<g>
		<rect x="416" y="152" width="16" height="16"/>
	</g>
</g>
<g>
	<g>
		<rect x="48" y="152" width="16" height="16"/>
	</g>
</g>
<g>
</g>
<g>
</g>
<g>
</g>
<g>
</g>
<g>
</g>
<g>
</g>
<g>
</g>
<g>
</g>
<g>
</g>
<g>
</g>
<g>
</g>
<g>
</g>
<g>
</g>
<g>
</g>
<g>
</g>
</svg>
